<?xml version="1.0" standalone="no"?>
<!DOCTYPE svg PUBLIC "-//W3C//DTD SVG 20010904//EN"
 "http://www.w3.org/TR/2001/REC-SVG-20010904/DTD/svg10.dtd">
<svg version="1.0" xmlns="http://www.w3.org/2000/svg"
 width="50.000000pt" height="50.000000pt" viewBox="0 0 50.000000 50.000000"
 preserveAspectRatio="xMidYMid meet">

    <g transform="translate(0.000000,50.000000) scale(0.100000,-0.100000)"
    stroke="none">
        <path d="M115 481 c-98 -45 -140 -152 -96 -246 70 -151 272 -151 342 0 10 22
        19 56 19 75 l1 35 16 -30 c12 -21 18 -66 22 -148 6 -115 7 -120 34 -143 29
        -25 47 -31 47 -16 0 5 -11 14 -25 20 -29 14 -33 28 -38 158 -4 117 -25 172
        -90 237 -73 73 -155 94 -232 58z m120 -32 c11 -17 -3 -53 -25 -67 -25 -15 -58
        2 -66 35 -9 32 3 43 46 43 21 0 42 -5 45 -11z m-115 -78 c16 -31 12 -49 -14
        -66 -19 -13 -29 -14 -45 -5 -23 12 -26 26 -11 64 12 32 54 36 70 7z m210 -7
        c15 -38 12 -52 -11 -64 -24 -13 -69 10 -69 36 0 54 62 76 80 28z m-124 -45
        c10 -17 -13 -36 -27 -22 -12 12 -4 33 11 33 5 0 12 -5 16 -11z m-48 -71 c16
        -16 15 -53 -3 -68 -17 -14 -46 -6 -69 19 -36 40 34 87 72 49z m146 -11 c9 -15
        6 -23 -18 -43 -45 -39 -86 -16 -72 40 6 24 11 27 43 24 21 -2 40 -10 47 -21z"/>
    </g>
    <style>
        path {fill: #100000;}
        @media (prefers-color-scheme: dark) {
            path {fill: white;}
        }
    </style>
</svg>
