<?xml version="1.0" standalone="no"?>
<!DOCTYPE svg PUBLIC "-//W3C//DTD SVG 20010904//EN"
 "http://www.w3.org/TR/2001/REC-SVG-20010904/DTD/svg10.dtd">
<svg version="1.0" xmlns="http://www.w3.org/2000/svg"
 width="100.000000pt" height="100.000000pt" viewBox="0 0 100.000000 100.000000"
 preserveAspectRatio="xMidYMid meet">

<g transform="translate(0.000000,100.000000) scale(0.100000,-0.100000)"
fill="#000000" stroke="none">
<path d="M295 991 c-112 -29 -208 -107 -257 -210 -29 -59 -32 -75 -32 -156 0
-123 26 -189 108 -271 156 -156 397 -150 546 13 68 74 94 145 95 256 0 98 8
98 45 -1 31 -81 42 -183 34 -313 -8 -141 7 -207 58 -255 37 -35 69 -54 92 -54
30 0 16 29 -26 52 -76 42 -83 65 -84 283 -1 178 -3 195 -28 268 -35 103 -83
177 -169 260 -95 91 -170 128 -273 132 -44 3 -92 1 -109 -4z m159 -82 c46 -37
22 -122 -43 -149 -41 -16 -86 1 -112 44 -43 70 -7 126 81 126 33 0 55 -6 74
-21z m-235 -145 c35 -29 55 -87 41 -115 -31 -57 -120 -79 -160 -39 -25 25 -25
63 -1 116 31 68 70 80 120 38z m403 15 c24 -13 57 -83 58 -121 0 -72 -93 -93
-156 -35 -35 32 -36 34 -25 74 12 42 59 93 87 93 9 0 24 -5 36 -11z m-212
-134 c26 -32 -13 -81 -47 -59 -35 22 -23 74 17 74 10 0 23 -7 30 -15z m-123
-121 c26 -7 53 -60 53 -105 0 -40 -34 -79 -67 -79 -51 0 -123 58 -123 100 0
59 70 102 137 84z m272 -5 c64 -22 71 -91 14 -138 -88 -73 -169 -33 -149 75
13 67 60 89 135 63z"/>
</g>
</svg>
